<?xml version="1.0" encoding="UTF-8" standalone="no"?>
<!-- Created with Inkscape (http://www.inkscape.org/) -->

<svg
   xmlns:dc="http://purl.org/dc/elements/1.1/"
   xmlns:cc="http://creativecommons.org/ns#"
   xmlns:rdf="http://www.w3.org/1999/02/22-rdf-syntax-ns#"
   xmlns:svg="http://www.w3.org/2000/svg"
   xmlns="http://www.w3.org/2000/svg"
   xmlns:sodipodi="http://sodipodi.sourceforge.net/DTD/sodipodi-0.dtd"
   xmlns:inkscape="http://www.inkscape.org/namespaces/inkscape"
   width="24"
   height="24"
   id="svg3416"
   version="1.1"
   inkscape:version="0.48.4 r9939"
   sodipodi:docname="lens-nav-everpad.svg">
  <defs
     id="defs3418" />
  <sodipodi:namedview
     id="base"
     pagecolor="#ffffff"
     bordercolor="#666666"
     borderopacity="1.0"
     inkscape:pageopacity="0"
     inkscape:pageshadow="2"
     inkscape:zoom="35.916667"
     inkscape:cx="12"
     inkscape:cy="12"
     inkscape:document-units="px"
     inkscape:current-layer="layer1"
     showgrid="true"
     inkscape:window-width="1615"
     inkscape:window-height="1026"
     inkscape:window-x="65"
     inkscape:window-y="24"
     inkscape:window-maximized="1">
    <inkscape:grid
       type="xygrid"
       id="grid2986"
       empspacing="8"
       visible="true"
       enabled="true"
       snapvisiblegridlinesonly="true" />
  </sodipodi:namedview>
  <metadata
     id="metadata3421">
    <rdf:RDF>
      <cc:Work
         rdf:about="">
        <dc:format>image/svg+xml</dc:format>
        <dc:type
           rdf:resource="http://purl.org/dc/dcmitype/StillImage" />
        <dc:title />
      </cc:Work>
    </rdf:RDF>
  </metadata>
  <g
     inkscape:label="Layer 1"
     inkscape:groupmode="layer"
     id="layer1"
     transform="translate(0,-1028.3622)">
    <g
       style="display:inline"
       transform="matrix(1.547428,0,0,1.8561857,-0.00223249,-901.67169)"
       id="layer1-7"
       inkscape:label="Layer 1"
       inkscape:export-filename="PNG/lens-nav-everpad@18.png"
       inkscape:export-xdpi="90"
       inkscape:export-ydpi="90">
      <g
         id="g3051"
         transform="matrix(0.19421084,0,0,0.17778302,-4.7187411,1034.9126)">
        <path
           id="path3041"
           d="m 35.66,38.66 c 2.62,-2.11 6.1,-2.29 9.32,-2.26 12.05,0.07 24.09,-0.01 36.14,0.05 -2.24,2.41 -4.59,4.72 -7.02,6.94 -10.37,0.01 -20.74,-0.09 -31.11,0.02 -2.17,-0.1 -4.87,0.91 -4.75,3.51 -0.25,10.71 -0.03,21.44 -0.11,32.16 -0.35,2.34 1.2,5 3.79,4.89 11.68,0.35 23.39,-0.03 35.08,0.17 2.44,-0.05 5.57,0.27 7,-2.22 0.8,-5.8 0.16,-11.69 0.34,-17.53 2.29,-2.36 4.62,-4.7 7.01,-6.96 -0.06,7.54 0.12,15.08 -0.05,22.61 0.01,5.92 -5.35,10.99 -11.22,10.92 -11.38,0.15 -22.76,-0.06 -34.14,0.08 -3.39,0.02 -7.07,-0.02 -9.95,-2.08 -3.55,-2.34 -5.1,-6.74 -5,-10.85 0.02,-9.39 0.07,-18.79 -0.02,-28.18 -0.14,-4.17 1.09,-8.79 4.69,-11.27 z"
           inkscape:connector-curvature="0"
           style="fill:#cccccc" />
        <path
           id="path3043"
           d="m 84.56,40.75 c 1.87,-1.54 3.39,-4.4 6.09,-4.33 3.06,1.13 4.86,4.11 6.73,6.6 -1.45,2.03 -3.07,3.93 -4.9,5.63 -2.67,-2.6 -5.31,-5.23 -7.92,-7.9 z"
           inkscape:connector-curvature="0"
           style="fill:#cccccc" />
        <path
           id="path3045"
           d="m 60.11,65.06 c 6.94,-6.69 13.65,-13.61 20.55,-20.34 2.63,2.58 5.25,5.17 7.84,7.8 -6.77,6.91 -13.76,13.61 -20.52,20.54 -3.6,4.17 -9.5,4.42 -14.35,6.26 2.02,-4.79 2.31,-10.67 6.48,-14.26 z"
           inkscape:connector-curvature="0"
           style="fill:#cccccc" />
        <path
           id="path3047"
           d="m 67.7,61.69 c 4.55,-4.35 8.73,-9.1 13.58,-13.13 0.86,2.22 -1.62,3.46 -2.77,4.91 -5.79,5.23 -10.71,11.42 -17.02,16.04 0.91,-3.39 3.89,-5.43 6.21,-7.82 z"
           inkscape:connector-curvature="0"
           style="fill:#ffffff" />
      </g>
    </g>
  </g>
</svg>
